<?xml version="1.0" encoding="UTF-8" standalone="no"?>
<!DOCTYPE svg PUBLIC "-//W3C//DTD SVG 1.1//EN" "http://www.w3.org/Graphics/SVG/1.1/DTD/svg11.dtd">
<svg width="100%" height="100%" viewBox="0 0 24 25" version="1.1" xmlns="http://www.w3.org/2000/svg" xmlns:xlink="http://www.w3.org/1999/xlink" xml:space="preserve" xmlns:serif="http://www.serif.com/" style="fill-rule:evenodd;clip-rule:evenodd;stroke-linejoin:round;stroke-miterlimit:2;">
    <g transform="matrix(1,0,0,1,-1394.38,-2118.67)">
        <g id="path3724" transform="matrix(0.0480582,0,0,0.0480582,1394.38,2118.67)">
            <path d="M187.704,498.632C182.095,496.628 178.078,493.309 175.072,488.197L172.319,483.512L172.029,440.468L171.74,397.424L289.619,253.857C354.453,174.895 407.805,109.489 408.181,108.51C409.03,106.297 406.585,102.39 403.796,101.505C402.594,101.123 400.795,101.464 399.52,102.314C398.309,103.122 352.973,142.871 298.772,190.647C244.571,238.423 181.736,293.802 159.137,313.711L118.049,349.91L66.184,328.132C9.243,304.222 9.249,304.224 6.186,300.857C-2.074,291.777 -2.06,278.334 6.218,269.5C9.492,266.006 53.773,240.08 225.819,140.93C344.344,72.623 446.719,13.592 453.319,9.749C470.692,-0.368 475.086,-1.569 483.656,1.455C492.353,4.523 498.271,11.534 499.387,20.093C500.216,26.447 429.6,449.736 426.713,455.718C425.596,458.031 423.136,461.282 421.246,462.942C416.955,466.709 407.999,469.45 402.984,468.531C400.968,468.161 371.445,456.18 337.377,441.905C278.402,417.195 275.355,416.037 273.768,417.732C272.852,418.711 258.813,435.712 242.571,455.512C226.329,475.312 211.746,492.732 210.165,494.223C204.642,499.432 195.153,501.294 187.704,498.632L187.704,498.632Z" style="fill:rgb(169,172,184);fill-rule:nonzero;"/>
        </g>
    </g>
</svg>
