<?xml version="1.0" encoding="UTF-8" standalone="no"?>
<!DOCTYPE svg PUBLIC "-//W3C//DTD SVG 1.1//EN" "http://www.w3.org/Graphics/SVG/1.1/DTD/svg11.dtd">
<svg width="100%" height="100%" viewBox="0 0 30 30" version="1.1" xmlns="http://www.w3.org/2000/svg" xmlns:xlink="http://www.w3.org/1999/xlink" xml:space="preserve" xmlns:serif="http://www.serif.com/" style="fill-rule:evenodd;clip-rule:evenodd;stroke-linejoin:round;stroke-miterlimit:2;">
    <g transform="matrix(1,0,0,1,-1061.9,-1910.66)">
        <g transform="matrix(1,0,0,1,61.0875,0)">
            <g transform="matrix(0.273303,0,0,0.268999,727.286,1396.7)">
                <circle cx="1055.69" cy="1965.55" r="54.884" style="fill:rgb(255,0,0);"/>
            </g>
            <g transform="matrix(21.8831,21.8831,-21.8831,21.8831,1003.03,1925.08)">
                <path d="M0.3,-0.031C0.28,-0.031 0.265,-0.037 0.254,-0.048C0.243,-0.059 0.238,-0.074 0.238,-0.094L0.238,-0.228L0.107,-0.228C0.088,-0.228 0.073,-0.233 0.063,-0.243C0.052,-0.253 0.047,-0.268 0.047,-0.287C0.047,-0.306 0.052,-0.321 0.063,-0.331C0.073,-0.341 0.088,-0.346 0.107,-0.346L0.238,-0.346L0.238,-0.475C0.238,-0.495 0.243,-0.51 0.254,-0.521C0.265,-0.532 0.28,-0.537 0.301,-0.537C0.321,-0.537 0.336,-0.532 0.346,-0.521C0.357,-0.51 0.362,-0.495 0.362,-0.475L0.362,-0.346L0.493,-0.346C0.512,-0.346 0.527,-0.341 0.538,-0.331C0.548,-0.321 0.553,-0.306 0.553,-0.287C0.553,-0.268 0.548,-0.253 0.538,-0.243C0.527,-0.233 0.512,-0.228 0.493,-0.228L0.362,-0.228L0.362,-0.094C0.362,-0.074 0.357,-0.059 0.346,-0.048C0.336,-0.037 0.321,-0.031 0.3,-0.031Z" style="fill:white;fill-rule:nonzero;"/>
            </g>
        </g>
    </g>
</svg>
