<svg width="24" height="24" viewBox="0 0 24 24" fill="none" xmlns="http://www.w3.org/2000/svg">
<g clip-path="url(#clip0_290_34)">
<path d="M12.836 0.0291217C9.36205 -0.205878 5.96105 1.06512 3.50805 3.52112C1.05505 5.97712 -0.210952 9.37812 0.0300479 12.8541C0.470048 19.2081 6.08205 24.0001 13.084 24.0001H19.001C21.758 24.0001 24.001 21.7571 24.001 19.0001V12.3401C24 5.86212 19.0961 0.454122 12.836 0.0291217ZM7.00005 13.5001C6.17205 13.5001 5.50005 12.8281 5.50005 12.0001C5.50005 11.1721 6.17205 10.5001 7.00005 10.5001C7.82805 10.5001 8.50005 11.1721 8.50005 12.0001C8.50005 12.8281 7.82805 13.5001 7.00005 13.5001ZM12 13.5001C11.172 13.5001 10.5 12.8281 10.5 12.0001C10.5 11.1721 11.172 10.5001 12 10.5001C12.828 10.5001 13.5 11.1721 13.5 12.0001C13.5 12.8281 12.828 13.5001 12 13.5001ZM17 13.5001C16.172 13.5001 15.5 12.8281 15.5 12.0001C15.5 11.1721 16.172 10.5001 17 10.5001C17.828 10.5001 18.5 11.1721 18.5 12.0001C18.5 12.8281 17.828 13.5001 17 13.5001Z" fill="#0078FF"/>
</g>
<defs>
<clipPath id="clip0_290_34">
<rect width="24" height="24" fill="white"/>
</clipPath>
</defs>
</svg>
