<svg width="24" height="24" viewBox="0 0 24 24" fill="none" xmlns="http://www.w3.org/2000/svg">
<g clip-path="url(#clip0_290_36)">
<path d="M13.5 12.0001C13.5 12.8281 12.828 13.5001 12 13.5001C11.172 13.5001 10.5 12.8281 10.5 12.0001C10.5 11.1721 11.172 10.5001 12 10.5001C12.828 10.5001 13.5 11.1721 13.5 12.0001ZM17 10.5001C16.172 10.5001 15.5 11.1721 15.5 12.0001C15.5 12.8281 16.172 13.5001 17 13.5001C17.828 13.5001 18.5 12.8281 18.5 12.0001C18.5 11.1721 17.828 10.5001 17 10.5001ZM7.00001 10.5001C6.17201 10.5001 5.50001 11.1721 5.50001 12.0001C5.50001 12.8281 6.17201 13.5001 7.00001 13.5001C7.82801 13.5001 8.50001 12.8281 8.50001 12.0001C8.50001 11.1721 7.82801 10.5001 7.00001 10.5001ZM24 12.3401V19.0001C24 21.7571 21.757 24.0001 19 24.0001H13.083C6.08201 24.0001 0.470012 19.2081 0.0300115 12.8541C-0.210988 9.37811 1.05701 5.97611 3.50901 3.5211C5.96101 1.0661 9.36301 -0.205895 12.836 0.0291046C19.096 0.454105 24 5.86111 24 12.3401ZM22 12.3401C22 6.90911 17.916 2.3781 12.701 2.0241C12.472 2.0081 12.243 2.0011 12.015 2.0011C9.35901 2.0011 6.80601 3.0491 4.92401 4.93411C2.88001 6.98011 1.82301 9.81711 2.02501 12.7161C2.39801 18.0961 7.04901 22.0011 13.084 22.0011H19.001C20.655 22.0011 22.001 20.6551 22.001 19.0011V12.3411L22 12.3401Z" fill="#D0CEDC"/>
</g>
<defs>
<clipPath id="clip0_290_36">
<rect width="24" height="24" fill="white"/>
</clipPath>
</defs>
</svg>
