<?xml version="1.0" encoding="UTF-8" standalone="no"?>
<!DOCTYPE svg PUBLIC "-//W3C//DTD SVG 1.1//EN" "http://www.w3.org/Graphics/SVG/1.1/DTD/svg11.dtd">
<svg width="100%" height="100%" viewBox="0 0 368 352" version="1.1" xmlns="http://www.w3.org/2000/svg" xmlns:xlink="http://www.w3.org/1999/xlink" xml:space="preserve" xmlns:serif="http://www.serif.com/" style="fill-rule:evenodd;clip-rule:evenodd;stroke-linejoin:round;stroke-miterlimit:2;">
    <g transform="matrix(1,0,0,1,-1332.8,-2123.15)">
        <g transform="matrix(4.16667,0,0,4.16667,0,0)">
            <g transform="matrix(0.24,0,0,0.24,53.4066,32.4924)">
                <path d="M1275.07,2000.4C1278.29,1992.74 1285.78,1987.76 1294.09,1987.76C1302.4,1987.76 1309.89,1992.74 1313.11,2000.4L1353.97,2097.56L1459,2106.39C1467.28,2107.09 1474.33,2112.68 1476.9,2120.58C1479.46,2128.48 1477.04,2137.14 1470.76,2142.57L1390.98,2211.45L1415.03,2314.07C1416.93,2322.16 1413.79,2330.6 1407.07,2335.48C1400.35,2340.36 1391.36,2340.74 1384.25,2336.43L1294.09,2281.85L1203.93,2336.43C1196.82,2340.74 1187.83,2340.36 1181.11,2335.48C1174.39,2330.6 1171.25,2322.16 1173.15,2314.07L1197.2,2211.45L1117.42,2142.57C1111.14,2137.14 1108.72,2128.48 1111.28,2120.58C1113.85,2112.68 1120.9,2107.09 1129.18,2106.39L1234.21,2097.56L1275.07,2000.4Z" style="fill:rgb(254,192,14);"/>
            </g>
        </g>
    </g>
</svg>
