<svg width="46" height="46" viewBox="0 0 46 46" fill="none" xmlns="http://www.w3.org/2000/svg">
<path d="M46.0008 22.9999C46.0024 35.7023 35.7042 46 23.0018 46C10.2971 46 0 35.7023 0 22.9996C0.00135571 10.2971 10.2985 -0.000542262 23.0007 2.14168e-08C35.7034 2.14168e-08 46.0011 10.2958 46.0008 22.9999Z" fill="#73B7E5"/>
<path d="M45.9745 24.011L36.4368 14.4741L12.3418 27.9748L29.4451 45.0782C38.6992 42.3808 45.5412 34.0305 45.9745 24.011Z" fill="#468BCA"/>
<path d="M23.0007 16.5665C16.3341 7.01278 3.14662 14.6571 8.93387 23.8949C11.9639 28.731 21.7307 36.1765 23.0007 36.6328V16.5665Z" fill="#E95F50"/>
<path d="M20.0646 15.1343C14.3874 10.889 6.43373 16.3436 10.089 22.9996C9.02991 17.4564 14.7391 13.374 20.0646 15.1343Z" fill="white"/>
<path d="M23.001 16.5665C29.6673 7.01279 42.8542 14.6571 37.0673 23.8946C34.0381 28.731 24.2707 36.1771 23.001 36.6329V16.5665Z" fill="#CF2027"/>
<path d="M22.8771 24.0037L21.8639 18.7842L20.6709 26.3395L19.8241 21.4039L19.1229 25.5925L10.1807 25.598C10.3114 25.7563 10.445 25.916 10.5833 26.0768L19.5291 26.0703L19.8298 24.2715L20.6901 29.2866L21.9122 21.5485L22.9015 26.6467L22.9997 26.0858L23.0002 23.2995L22.8771 24.0037Z" fill="white"/>
<path d="M24.8346 30.0137L25.9592 24.3046L26.2833 26.0716L35.4286 26.0632C35.5663 25.9019 35.7008 25.7419 35.8312 25.5838L26.6824 25.592L25.975 21.739L24.8318 27.5461L23.4618 20.6577L23.0005 23.2994L23 26.0857L23.4919 23.2672L24.8346 30.0137Z" fill="#CACCCB"/>
</svg>
