<svg width="46" height="46" viewBox="0 0 46 46" fill="none" xmlns="http://www.w3.org/2000/svg">
<path d="M46.0003 23C46.0016 35.7028 35.7033 46 23.0019 46C10.2981 46 0 35.7022 0 23C0.000813411 10.297 10.2983 0.000542274 23 0C35.7036 0 46.0003 10.2967 46.0003 23Z" fill="#73B7E5"/>
<path d="M44.6562 30.7571L35.8722 21.9733L35.7049 22.1406L27.5575 13.9927L9.64648 31.904L23.7239 45.9814C33.388 45.6823 41.5503 39.4264 44.6562 30.7571Z" fill="#468BCA"/>
<path d="M15.0968 19.5454L9.64671 24.9969C7.73845 26.9049 7.73926 29.9964 9.64671 31.9038L18.5514 22.9997L15.0968 19.5454Z" fill="white"/>
<path d="M16.554 31.9041L22.0044 26.4535L18.5512 23L9.64648 31.9041C11.5539 33.8119 14.6463 33.8119 16.554 31.9041Z" fill="#CACCCB"/>
<path d="M27.4554 14.0952C25.5476 12.1872 22.4556 12.1869 20.5471 14.0952L15.0967 19.5456L18.5512 22.9998L27.4554 14.0952Z" fill="#E95F50"/>
<path d="M22.005 26.4534L27.4559 21.0032C29.3631 19.0955 29.3633 16.0029 27.4559 14.0952L18.5518 22.9999L22.005 26.4534Z" fill="#CF2027"/>
<path d="M10.9623 27.354C10.7107 27.354 10.4593 27.2578 10.2676 27.0655C9.88344 26.6819 9.88344 26.0594 10.2676 25.676L15.747 20.1963L17.1372 21.5861L11.6575 27.0655C11.4655 27.2578 11.2139 27.354 10.9623 27.354Z" fill="#E2EBE8"/>
<path d="M17.1372 21.5861L15.7471 20.1962L23.209 12.7337C23.4723 12.6906 23.738 12.6689 24.004 12.6689C24.5921 12.6689 25.1797 12.775 25.7366 12.9873L17.1372 21.5861Z" fill="#F4AFA8"/>
<path d="M24.4092 26.6474C24.4092 29.791 26.5815 32.4205 29.5044 33.1366V20.1597C26.581 20.8755 24.4092 23.5047 24.4092 26.6474Z" fill="white"/>
<path d="M31.097 19.9609C30.5471 19.9612 30.016 20.0347 29.5049 20.16V33.1368C30.016 33.2616 30.5471 33.3353 31.097 33.3348V19.9609Z" fill="#646465"/>
<path d="M37.7844 26.6474C37.7844 23.5047 35.6131 20.8755 32.6895 20.1597V33.1366C35.6131 32.4205 37.7844 29.791 37.7844 26.6474Z" fill="#CACCCB"/>
<path d="M31.0977 33.3348C31.6473 33.3353 32.1787 33.2616 32.6898 33.1368V20.16C32.1787 20.0347 31.6473 19.9612 31.0977 19.9609V33.3348Z" fill="white"/>
</svg>
