<svg width="46" height="46" viewBox="0 0 46 46" fill="none" xmlns="http://www.w3.org/2000/svg">
<path d="M46.0003 23.0003C46.0011 35.7029 35.7035 46 23.0005 46C10.2963 46 0 35.7021 0 22.9995C0.00054228 10.2968 10.2974 -0.000271135 23 5.35456e-09C35.7032 5.35456e-09 46.0003 10.296 46.0003 23.0003Z" fill="#73B7E5"/>
<path d="M45.8112 25.9136L31.341 11.4439L30.0374 13.15L25.9773 9.08936L19.7314 15.3356L24.6271 20.2316L13.1982 35.1898L23.9837 45.9752C35.2522 45.5013 44.4189 36.9205 45.8112 25.9136Z" fill="#468BCA"/>
<path d="M31.9945 33.7191C31.9945 34.9533 30.994 35.9538 29.7606 35.9538H14.8861C13.6519 35.953 12.6519 34.9533 12.6514 33.7191V13.0233C12.6514 11.7896 13.6521 10.7891 14.8858 10.7891H29.7606C30.994 10.7891 31.9945 11.7904 31.9945 13.023V33.7191Z" fill="white"/>
<path d="M16.9741 18.8568L14.6328 16.5155L15.2833 15.8645L16.9318 17.5119L19.9488 14.0825L20.6397 14.6907L16.9741 18.8568Z" fill="#CF2027"/>
<path d="M30.0143 17.4746L21.8682 17.4738V16.4697H30.0143V17.4746Z" fill="#1A1B1B"/>
<path d="M16.9741 24.8745L14.6328 22.5332L15.2833 21.8822L16.9313 23.5299L19.9488 20.1011L20.6397 20.7087L16.9741 24.8745Z" fill="#CF2027"/>
<path d="M30.0143 23.4921H21.8682V22.4878L30.0143 22.4883V23.4921Z" fill="#1A1B1B"/>
<path d="M16.9737 30.8926L14.6318 28.5515L15.2828 27.9003L16.9308 29.548L19.9481 26.1191L20.6389 26.727L16.9737 30.8926Z" fill="#CF2027"/>
<path d="M30.0143 29.5098L21.8682 29.5101L21.8687 28.5063H30.0143V29.5098Z" fill="#1A1B1B"/>
<path d="M24.9965 23.2603L24.166 23.9593L33.4461 34.9768L34.2771 34.2767L24.9965 23.2603Z" fill="#73B7E5"/>
<path d="M33.4453 34.9764L35.0751 36.9102L35.9059 36.2101L34.2764 34.2764L33.4453 34.9764Z" fill="#E95F50"/>
<path d="M34.2767 34.2765L35.1072 33.5767L25.8266 22.5605L24.9961 23.2601L34.2767 34.2765Z" fill="#468BCA"/>
<path d="M35.1069 33.5767L34.2764 34.2765L35.9059 36.2102L36.737 35.511L35.1069 33.5767Z" fill="#CF2027"/>
<path d="M23.2676 21.9447L24.1656 23.9593L24.9961 23.2603L23.6306 21.6392L23.2676 21.9447Z" fill="#FDE059"/>
<path d="M24.9963 23.26L25.8268 22.5605L23.9936 21.333L23.6309 21.6389L24.9963 23.26Z" fill="#E9B825"/>
<path d="M22.5713 20.3804L23.2676 21.9443L23.6306 21.6387L22.5713 20.3804Z" fill="#CBCCCB"/>
<path d="M23.6306 21.6387L23.9934 21.3329L22.5713 20.3804L23.6306 21.6387Z" fill="#949494"/>
<path d="M18.6689 12.4881H25.9767V10.7886L18.6689 10.7889V12.4881Z" fill="#646465"/>
<path d="M18.6689 9.08962V10.7889L25.9767 10.7886V9.08936L18.6689 9.08962Z" fill="#1A1B1B"/>
</svg>
