<?xml version="1.0" encoding="UTF-8" standalone="no"?>
<!DOCTYPE svg PUBLIC "-//W3C//DTD SVG 1.1//EN" "http://www.w3.org/Graphics/SVG/1.1/DTD/svg11.dtd">
<svg  width="100%" height="100%" viewBox="0 0 67 65" version="1.1" xmlns="http://www.w3.org/2000/svg" xmlns:xlink="http://www.w3.org/1999/xlink" xml:space="preserve" xmlns:serif="http://www.serif.com/" style="fill-rule:evenodd;clip-rule:evenodd;stroke-linejoin:round;stroke-miterlimit:2;">
    <g transform="matrix(1,0,0,1,-1459.29,-2285.59)">
        <path d="M1506.43,2302.32C1511.9,2306.27 1514.57,2310.4 1515.35,2314.38C1516.22,2318.79 1514.85,2323.17 1511.91,2327.28C1508.7,2331.75 1503.58,2335.92 1497.91,2339.43C1503.19,2341.98 1508.32,2343.84 1512.06,2344.71C1512.06,2343.36 1512.06,2341.6 1512.08,2339.55C1512.09,2338.89 1512.36,2338.25 1512.84,2337.78C1517.99,2332.78 1521.18,2325.87 1521.18,2318.24C1521.18,2302.96 1508.42,2290.59 1492.74,2290.59C1477.05,2290.59 1464.29,2302.96 1464.29,2318.24C1464.29,2330.38 1472.36,2340.69 1483.55,2344.4C1484.86,2344.84 1485.57,2346.25 1485.13,2347.56C1484.7,2348.87 1483.28,2349.58 1481.97,2349.15C1468.77,2344.76 1459.29,2332.57 1459.29,2318.24C1459.29,2300.24 1474.26,2285.59 1492.74,2285.59C1511.21,2285.59 1526.18,2300.24 1526.18,2318.24C1526.18,2326.89 1522.72,2334.77 1517.07,2340.62C1517.05,2344.89 1517.08,2347.66 1517.08,2347.66C1517.09,2348.37 1516.79,2349.06 1516.27,2349.54C1515.74,2350.02 1515.03,2350.25 1514.32,2350.18C1505.88,2349.29 1483.63,2340.06 1474.37,2328.34C1470.91,2323.98 1469.21,2319.27 1470.09,2314.53C1470.84,2310.5 1473.51,2306.32 1479.04,2302.32C1479.5,2299.99 1481.56,2298.22 1484.03,2298.22C1486.83,2298.22 1489.1,2300.5 1489.1,2303.3C1489.1,2306.1 1486.83,2308.38 1484.03,2308.38C1482.81,2308.38 1481.69,2307.95 1480.82,2307.24C1477.38,2309.95 1475.52,2312.67 1475.01,2315.45C1474.02,2320.76 1477.92,2325.78 1483.28,2330.26C1486.1,2332.61 1489.35,2334.78 1492.72,2336.7C1498.78,2333.26 1504.5,2329.03 1507.85,2324.37C1509.91,2321.48 1511.06,2318.45 1510.45,2315.35C1509.91,2312.61 1508.06,2309.92 1504.65,2307.24C1503.78,2307.95 1502.66,2308.38 1501.45,2308.38C1498.65,2308.38 1496.37,2306.1 1496.37,2303.3C1496.37,2300.5 1498.65,2298.22 1501.45,2298.22C1503.91,2298.22 1505.97,2299.99 1506.43,2302.32ZM1484.54,2316.13C1486.22,2316.13 1487.58,2317.5 1487.58,2319.18C1487.58,2320.86 1486.22,2322.22 1484.54,2322.22C1482.86,2322.22 1481.5,2320.86 1481.5,2319.18C1481.5,2317.5 1482.86,2316.13 1484.54,2316.13ZM1492.74,2316.13C1494.41,2316.13 1495.78,2317.5 1495.78,2319.18C1495.78,2320.86 1494.41,2322.22 1492.74,2322.22C1491.06,2322.22 1489.69,2320.86 1489.69,2319.18C1489.69,2317.5 1491.06,2316.13 1492.74,2316.13ZM1500.93,2316.13C1502.61,2316.13 1503.97,2317.5 1503.97,2319.18C1503.97,2320.86 1502.61,2322.22 1500.93,2322.22C1499.25,2322.22 1497.89,2320.86 1497.89,2319.18C1497.89,2317.5 1499.25,2316.13 1500.93,2316.13Z"/>
    </g>
</svg>
